# xmcd CD database file
#
# Track frame offsets:
#	150
#	12027
#	23565
#
# Disc length: 536 seconds
#
# Revision: 0
# Processed by: cddbd v1.4PL0 Copyright (c) Steve Scherf et al.
# Submitted via: CDex 1.50Beta3
#
DISCID=11021603
DTITLE=Johnny Cash - Ring Of Fire/ As Featured In The Levi's Jeans Commercial
DYEAR=1993
DGENRE=Country
TTITLE0=Ring Of Fire
TTITLE1=A Thing Called Love
TTITLE2=A Boy Named Sue
EXTD=YEAR: 1993
EXTT0=
EXTT1=
EXTT2=
PLAYORDER=
